<svg viewBox="0 0 1024 1024" version="1.1" xmlns="http://www.w3.org/2000/svg">
    <path d="M871.9 259.8L552 75.9c-24-16-56-16-80 0L152.1 259.8c-24 16-40 40-40 68v367.9c0 28 16 56 40 68L472 947.6c24 16 56 16 80 0l319.9-183.9c24-16 40-40 40-68V327.8c0-28-16-56-40-68z m-1.1 418c0 25.1-14.4 46.7-35.9 61L547.8 904c-21.5 14.4-50.3 14.4-71.8 0L188.8 738.9c-21.5-10.8-35.9-35.9-35.9-61V347.6c0-25.1 14.4-46.7 35.9-61L476 121.4c21.5-14.4 50.3-14.4 71.8 0L835 286.5c21.5 10.8 35.9 35.9 35.9 61v330.3z" fill="#614CAA"></path>
    <path d="M793.6 345.8c-5.8-10.1-18.6-13.5-28.5-7.5L512.2 489.6l-257.6-150c-10.2-5.9-23.3-2.6-29.2 7.5-6 10.1-2.6 23 7.6 29l260.2 151.6-2.4 288.1c-0.1 11 8.8 20.1 19.8 20.2 11 0.1 20.1-8.8 20.2-19.8l2.4-289.7L786.3 375c9.9-6.1 13.2-19.1 7.3-29.2z" fill="#614CAA"></path>
</svg>